# xmcd
#
# Track frame offsets:
#	150
#	38080
#	70487
#	116757
#	152952
#	191062
#	228075
#	263232
#	298345
#
# Disc length: 4327
#
# Revision: 2
# Processed by: cddbd v1.5.1PL0 Copyright (c) Steve Scherf et al.
# Submitted via: CDex 1.51
# Normalized: r0:DSETVAR1,TSWAP
#
DISCID=8710e509
DTITLE=Various Artist - Monochrome disc 11
DYEAR=1960
DGENRE=Jazz
TTITLE0=Freddie Hubbard - Hub-Tones
TTITLE1=Herbie Hancock - Watermelon Man
TTITLE2=Lee Morgan - The Sidewinder
TTITLE3=Joe Henderson - Blue Bossa
TTITLE4=Eric Dolphy - Hat and Beard
TTITLE5=Hank Mobley - Recado Bossa nova
TTITLE6=Ornette Coleman - Europian Echoes
TTITLE7=Herbie Hancock - Speak like a Child
TTITLE8=Bobby Hutcherson - Maiden Voyage
EXTD=YEAR: 1960
EXTT0=
EXTT1=
EXTT2=
EXTT3=
EXTT4=
EXTT5=
EXTT6=
EXTT7=
EXTT8=
PLAYORDER=
